:SAMPLES-PER-SECOND 30
:FULLY-SPECIFIED
:DEGREES
861
root  85.9529 38.3781 -0.546157 -152.024 88.3392 -149.6
RightUpLeg  -9.43947 -6.20408 2.81718
RightLeg  16.7918 4.38141 2.21172
RightFoot  -4.62125 0.192012 -3.80092
RightToes  -1.33073e-015 0 -3.6325e-017
Spine  2.21469 1.32954 11.2218
Spine1  7.16142 1.9764 0.438511
HEad  -57.8731 -10.106 13.7295
LeftShoulder1  -0.258871 4.12732 -35.3495
LeftArm  0.35622 18.2765 -38.3786
LeftForeArm  50.9741 -2.46723 -11.0966
LeftHand  -0.601852 10.9349 -10.8748
RightShoulder  -0.946215 -6.06933 30.3026
RightArm  24.7322 5.58404 42.6689
RightForeArm  4.25194 16.9191 6.23805
RightHand  -0.0574298 3.95662 -0.97062
LeftUpLeg  -12.8056 7.37516 4.13565
LeftLeg  47.7916 -0.660784 -0.37809
LeftFoot  -7.78654 0.176018 -4.15814
LeftToes  -1.63346e-009 7.54925e-011 9.86887e-012
862
root  86.3922 38.4993 -0.552232 -161.271 88.6095 -159.459
RightUpLeg  -8.94215 -6.34295 2.42967
RightLeg  15.9356 4.56506 2.22062
RightFoot  -4.67904 0.174455 -3.53952
RightToes  -1.33073e-015 0 -3.6325e-017
Spine  1.70102 1.67901 12.048
Spine1  7.02596 2.53217 -1.14607
HEad  -58.2587 -10.9804 14.0254
LeftShoulder1  -0.257586 4.12519 -35.2879
LeftArm  -0.35305 20.8278 -37.2928
LeftForeArm  47.2334 -2.82329 -10.5467
LeftHand  -0.476733 10.5269 -8.62481
RightShoulder  -0.955995 -6.09177 30.3637
RightArm  25.5026 5.64273 42.8855
RightForeArm  3.92304 17.0208 6.2718
RightHand  0.0117396 3.37682 -0.0937901
LeftUpLeg  -13.2554 6.17013 3.34829
LeftLeg  42.1335 0.0812653 0.465752
LeftFoot  -8.18606 0.130685 -3.00629
LeftToes  -1.63346e-009 7.54925e-011 9.86887e-012
863
root  86.7702 38.5802 -0.492038 -172.213 88.6676 -171.186
RightUpLeg  -8.78239 -6.08139 2.35429
RightLeg  15.119 4.31793 1.91994
RightFoot  -4.76236 0.18759 -3.81978
RightToes  -1.33073e-015 0 -3.6325e-017
Spine  1.05531 2.04905 11.5077
Spine1  6.79721 2.68557 -1.13433
HEad  -58.5784 -11.7435 14.1953
LeftShoulder1  -0.269051 4.1548 -35.1633
LeftArm  -2.20736 23.3278 -37.3821
LeftForeArm  43.0416 -4.72952 -9.47858
LeftHand  -0.181404 9.5026 -3.68955
RightShoulder  -0.961064 -6.10817 30.3273
RightArm  25.7414 5.45887 43.1136
RightForeArm  3.59714 17.3347 6.16117
RightHand  0.0105011 3.9478 -0.135793
LeftUpLeg  -13.0221 4.49305 2.85782
LeftLeg  33.6126 -0.0198909 0.355079
LeftFoot  -7.67851 0.140277 -2.68114
LeftToes  -1.63346e-009 7.54925e-011 9.86887e-012
864
root  87.1641 38.6538 -0.427381 -167.382 88.4572 -167.023
RightUpLeg  -8.32268 -5.7603 2.6067
RightLeg  13.9512 3.65625 1.73264
RightFoot  -4.54997 0.219463 -4.21598
RightToes  -1.33073e-015 0 -3.6325e-017
Spine  -0.13997 2.39022 11.2347
Spine1  7.25019 2.78378 -1.09407
HEad  -59.0025 -12.0242 14.4583
LeftShoulder1  -0.257982 4.12899 -35.1041
LeftArm  -2.66334 24.0057 -37.5697
LeftForeArm  41.9596 -6.44393 -9.10174
LeftHand  -0.210485 9.68887 -3.97583
RightShoulder  -0.968525 -6.11558 30.5082
RightArm  25.6496 5.18461 43.0263
RightForeArm  3.61149 17.5745 6.03792
RightHand  0.0247126 4.78778 -0.00776878
LeftUpLeg  -11.859 3.16113 2.93059
LeftLeg  23.5385 -0.640226 0.00759973
LeftFoot  -5.82186 0.128897 -2.61696
LeftToes  -1.63346e-009 7.54925e-011 9.86887e-012
865
root  87.5258 38.7339 -0.104851 -175.452 86.973 -175.953
RightUpLeg  -7.99876 -4.73992 3.33643
RightLeg  12.5588 1.29307 0.579652
RightFoot  -4.45607 0.211364 -3.99831
RightToes  -1.33073e-015 0 -3.6325e-017
Spine  -1.12976 2.31405 7.24668
Spine1  6.63929 1.79824 2.45775
HEad  -58.9044 -11.4515 15.0827
LeftShoulder1  -0.277432 4.17956 -34.8935
LeftArm  -2.42511 22.9651 -37.9669
LeftForeArm  42.3325 -5.9884 -9.30564
LeftHand  -0.166228 9.58811 -2.71593
RightShoulder  -0.940306 -6.04552 30.4123
RightArm  26.593 4.76832 43.2118
RightForeArm  3.49452 17.0955 6.3666
RightHand  0.0516319 4.61609 0.347732
LeftUpLeg  -11.5688 3.78295 2.99801
LeftLeg  17.7662 -1.37962 -0.188813
LeftFoot  -3.53822 -0.196 3.35759
LeftToes  -1.63346e-009 7.54925e-011 9.86887e-012
866
root  87.8325 38.7123 0.183194 -173.159 84.6421 -174.325
RightUpLeg  -8.04849 -3.78619 4.37269
RightLeg  12.2741 -1.76207 -0.619208
RightFoot  -4.94863 0.16426 -3.53673
RightToes  -1.33073e-015 0 -3.6325e-017
Spine  -2.22116 1.64244 2.93047
Spine1  6.77592 0.0884849 7.18947
HEad  -59.1805 -10.637 15.532
LeftShoulder1  -0.306148 4.24751 -35.0005
LeftArm  -1.88694 20.0784 -38.5981
LeftForeArm  43.5567 -4.70655 -9.75712
LeftHand  -0.365869 10.8806 -6.29098
RightShoulder  -0.946851 -6.056 30.5167
RightArm  26.336 5.20202 43.5818
RightForeArm  3.37205 15.6876 7.08804
RightHand  -0.108463 5.18209 -1.5094
LeftUpLeg  -12.238 4.77238 3.58954
LeftLeg  18.0133 -3.42545 -0.924299
LeftFoot  -4.43514 -0.116303 2.37304
LeftToes  -1.63346e-009 7.54925e-011 9.86887e-012
867
root  87.8257 38.8296 0.0483157 -176.474 84.7614 -178.065
RightUpLeg  -8.23092 -4.10248 3.58142
RightLeg  11.7239 -1.34088 -0.113585
RightFoot  -4.19526 0.212104 -3.85177
RightToes  -1.33073e-015 0 -3.6325e-017
Spine  -0.406599 1.59614 4.79442
Spine1  5.35427 0.730573 4.07673
HEad  -60.1856 -10.0137 16.1875
LeftShoulder1  -0.313647 4.26279 -35.1567
LeftArm  -2.01085 16.0997 -39.3275
LeftForeArm  45.0029 -4.65128 -9.85325
LeftHand  -0.377287 10.7504 -6.5934
RightShoulder  -0.961505 -6.078 30.7708
RightArm  23.2129 5.21066 44.2759
RightForeArm  6.36456 13.7578 7.54303
RightHand  -0.0579554 4.56367 -0.966624
LeftUpLeg  -11.8515 5.51773 3.05725
LeftLeg  16.3765 -4.54934 -1.19446
LeftFoot  -3.20506 -0.10239 1.72441
LeftToes  -1.63346e-009 7.54925e-011 9.86887e-012
868
root  87.8669 38.8832 0.103177 177.887 82.9596 176.124
RightUpLeg  -8.49587 -4.727 2.83928
RightLeg  12.2192 -2.41952 -0.129936
RightFoot  -4.22559 0.218906 -3.9818
RightToes  -1.33073e-015 0 -3.6325e-017
Spine  0.635027 1.16246 4.61722
Spine1  5.27203 0.495266 3.33587
HEad  -62.019 -9.18984 16.861
LeftShoulder1  -0.300643 4.23195 -35.1237
LeftArm  -1.87724 11.7641 -40.151
LeftForeArm  44.6345 -5.93652 -9.86597
LeftHand  -0.373648 10.3802 -6.7595
RightShoulder  -0.955496 -6.06507 30.722
RightArm  18.6634 4.47884 45.656
RightForeArm  8.90079 11.8956 7.50965
RightHand  -0.0661269 4.64359 -1.05739
LeftUpLeg  -12.0881 4.32125 2.62271
LeftLeg  16.048 -5.86171 -1.58675
LeftFoot  -2.19229 -0.00749834 0.227904
LeftToes  -1.63346e-009 7.54925e-011 9.86887e-012
869
root  87.7767 39.0172 0.1648 173.757 81.52 171.609
RightUpLeg  -8.77806 -5.20409 2.04377
RightLeg  11.933 -3.42981 -0.122423
RightFoot  -3.35824 0.267645 -4.14431
RightToes  -1.33073e-015 0 -3.6325e-017
Spine  2.77217 1.06404 5.67638
Spine1  4.0952 1.00569 0.773058
HEad  -64.1094 -8.7585 17.3355
LeftShoulder1  -0.292977 4.21322 -35.1214
LeftArm  2.38209 6.71665 -40.3582
LeftForeArm  38.2845 -8.60321 -10.0457
LeftHand  -0.165052 8.59894 -4.14282
RightShoulder  -0.92286 -5.99654 30.4323
RightArm  15.8606 3.13421 47.0082
RightForeArm  9.44493 10.6672 7.29943
RightHand  -0.0701263 4.49131 -1.10392
LeftUpLeg  -12.1813 4.12938 1.7188
LeftLeg  14.5218 -6.74755 -1.6852
LeftFoot  0.312447 -0.0776273 0.74413
LeftToes  -1.63346e-009 7.54925e-011 9.86887e-012
870
root  87.6484 39.1267 0.187776 168.677 80.3318 165.826
RightUpLeg  -9.38943 -6.09198 0.74485
RightLeg  11.5143 -3.6997 0.262782
RightFoot  -2.78767 0.349302 -4.92271
RightToes  -1.33073e-015 0 -3.6325e-017
Spine  4.36747 1.08596 6.97862
Spine1  3.46699 1.789 -2.55335
HEad  -66.2915 -6.35704 16.5226
LeftShoulder1  -0.235329 4.07856 -34.7981
LeftArm  10.5007 4.36296 -41.3271
LeftForeArm  28.728 -16.6135 -7.09172
LeftHand  -0.225152 9.25854 -5.02763
RightShoulder  -0.901014 -5.93583 30.4496
RightArm  16.0588 2.41146 47.7611
RightForeArm  9.5847 10.0936 7.5286
RightHand  0.00167575 3.65835 -0.232757
LeftUpLeg  -12.3367 3.65579 0.409909
LeftLeg  12.5551 -7.31656 -1.63043
LeftFoot  2.49072 -0.0852138 0.584144
LeftToes  -1.63346e-009 7.54925e-011 9.86887e-012
871
root  87.5376 39.176 0.150777 165.065 79.1037 161.416
RightUpLeg  -10.0108 -7.17128 -0.66603
RightLeg  10.8882 -4.1012 0.72613
RightFoot  -2.798 0.339945 -4.79884
RightToes  -1.33073e-015 0 -3.6325e-017
Spine  5.15366 1.11564 9.26631
Spine1  3.88419 2.80555 -6.77487
HEad  -68.7519 -1.34083 13.563
LeftShoulder1  -0.237142 4.08088 -34.9193
LeftArm  15.3778 2.64934 -41.6809
LeftForeArm  21.4989 -25.6081 -3.91989
LeftHand  -0.124533 8.01944 -2.91482
RightShoulder  -0.888478 -5.90073 30.4551
RightArm  18.3206 2.22085 48.3491
RightForeArm  10.7441 10.2192 8.0486
RightHand  0.0501711 2.85139 0.485425
LeftUpLeg  -12.3789 2.74894 -0.885531
LeftLeg  10.4692 -7.39918 -1.4374
LeftFoot  3.66151 -0.0161281 -0.0545171
LeftToes  -1.63346e-009 7.54925e-011 9.86887e-012
872
root  87.438 39.2567 0.130695 163.173 77.3017 158.576
RightUpLeg  -10.7142 -8.34742 -2.09471
RightLeg  10.4527 -4.60986 1.18947
RightFoot  -2.54863 0.364961 -4.96423
RightToes  -1.33073e-015 0 -3.6325e-017
Spine  5.80903 0.883738 10.1114
Spine1  3.87772 3.13238 -9.09945
HEad  -71.0678 4.19142 8.53508
LeftShoulder1  -0.272379 4.16384 -35.0647
LeftArm  9.49462 2.39038 -41.5962
LeftForeArm  25.156 -34.0514 -6.13497
LeftHand  -0.0180741 5.97707 1.31063
RightShoulder  -0.821967 -5.7469 30.0196
RightArm  23.5496 2.37553 48.5182
RightForeArm  10.6973 10.9374 8.92214
RightHand  0.0884511 3.02733 0.99591
LeftUpLeg  -11.9226 1.74818 -2.19745
LeftLeg  7.03527 -7.93525 -1.15835
LeftFoot  5.52887 0.00245379 -0.219262
LeftToes  -1.63346e-009 7.54925e-011 9.86887e-012
873
root  87.2331 39.3094 0.0992784 163.523 75.9743 158.023
RightUpLeg  -11.5646 -9.14656 -3.00963
RightLeg  9.96533 -5.07707 1.71692
RightFoot  -2.06199 0.407872 -5.19122
RightToes  -1.33073e-015 0 -3.6325e-017
Spine  7.10688 0.748906 11.8312
Spine1  3.26448 3.70697 -11.9207
HEad  -74.4483 8.66793 0.842239
LeftShoulder1  -0.208766 4.01676 -34.5324
LeftArm  6.90571 2.55739 -42.2891
LeftForeArm  26.2791 -42.0676 -8.35017
LeftHand  -0.0652641 4.54666 4.79257
RightShoulder  -0.836842 -5.77865 30.1669
RightArm  28.0308 2.4796 48.1126
RightForeArm  10.4715 12.3999 9.00203
RightHand  0.0728247 3.75491 0.66313
LeftUpLeg  -11.4249 0.980638 -2.94492
LeftLeg  3.50897 -8.26632 -0.610684
LeftFoot  5.81206 0.291329 -2.25819
LeftToes  -1.63346e-009 7.54925e-011 9.86887e-012
874
root  87.1449 39.3375 0.149749 164.528 73.7235 157.993
RightUpLeg  -12.335 -10.1119 -3.95733
RightLeg  9.6552 -6.32599 1.99746
RightFoot  -1.96352 0.432841 -5.43669
RightToes  -1.33073e-015 0 -3.6325e-017
Spine  6.82676 0.780103 11.1989
Spine1  3.99357 3.66698 -11.5404
HEad  -81.1144 13.8933 -11.9108
LeftShoulder1  -0.281394 4.19 -34.8536
LeftArm  5.75621 2.32242 -42.797
LeftForeArm  28.1692 -48.999 -10.8167
LeftHand  -0.225135 1.9416 7.64211
RightShoulder  -0.753504 -5.57713 29.6617
RightArm  30.1101 2.46565 47.982
RightForeArm  11.1261 13.257 8.81754
RightHand  0.0827593 3.81118 0.78442
LeftUpLeg  -10.605 0.209227 -3.68731
LeftLeg  -0.292455 -7.45713 0.134575
LeftFoot  3.13471 0.858728 -6.8874
LeftToes  -1.63346e-009 7.54925e-011 9.86887e-012
875
root  86.8985 39.3857 0.214116 166.952 71.512 159.635
RightUpLeg  -12.952 -10.402 -4.36099
RightLeg  8.9951 -8.21653 1.9852
RightFoot  -1.31491 0.431988 -5.01444
RightToes  -1.33073e-015 0 -3.6325e-017
Spine  8.24276 0.626372 10.307
Spine1  2.59632 3.20857 -10.4725
HEad  -91.1567 15.5751 -27.2808
LeftShoulder1  -0.266192 4.16351 -34.212
LeftArm  5.17515 3.41303 -43.9797
LeftForeArm  32.4348 -55.3338 -13.4548
LeftHand  -0.224276 1.66361 6.81762
RightShoulder  -0.592303 -5.16192 28.9701
RightArm  31.2786 2.46575 47.4325
RightForeArm  10.2065 13.1898 9.06356
RightHand  0.102784 3.33454 1.12528
LeftUpLeg  -10.5557 0.167393 -3.83397
LeftLeg  -1.70617 -5.59424 0.216981
LeftFoot  0.631117 0.864669 -8.22194
LeftToes  -1.63346e-009 7.54925e-011 9.86887e-012
